<?xml version="1.0" standalone="no"?>
<!DOCTYPE svg PUBLIC "-//W3C//DTD SVG 20010904//EN"
 "http://www.w3.org/TR/2001/REC-SVG-20010904/DTD/svg10.dtd">
<svg version="1.0" xmlns="http://www.w3.org/2000/svg"
 width="1112.000000pt" height="336.000000pt" viewBox="0 0 1112.000000 336.000000"
 preserveAspectRatio="xMidYMid meet">
<metadata>
Created by potrace 1.16, written by Peter Selinger 2001-2019
</metadata>
<g transform="translate(0.000000,336.000000) scale(0.100000,-0.100000)"
fill="#000000" stroke="none">
<path d="M5050 2870 l0 -270 260 0 260 0 0 -190 0 -190 -395 0 -395 0 0 -195
0 -195 -260 0 -260 0 0 -270 0 -270 530 0 530 0 0 270 0 270 -260 0 -260 0 0
185 0 185 385 0 385 0 0 -595 0 -595 -2420 0 -2420 0 0 -135 0 -135 -265 0
-265 0 0 -270 0 -270 535 0 535 0 0 270 0 270 -265 0 -265 0 0 130 0 130 800
0 800 0 0 -145 0 -145 -260 0 -260 0 0 -270 0 -270 530 0 530 0 0 270 0 270
-260 0 -260 0 0 145 0 145 800 0 800 0 0 -145 0 -145 -265 0 -265 0 0 -270 0
-270 535 0 535 0 0 270 0 270 -265 0 -266 0 3 143 3 142 798 3 797 2 0 -145 0
-145 -260 0 -260 0 0 -270 0 -270 530 0 530 0 0 270 0 270 -260 0 -260 0 0
145 0 145 798 -2 797 -3 3 -142 3 -143 -266 0 -265 0 0 -270 0 -270 530 0 530
0 0 270 0 270 -260 0 -260 0 0 145 0 145 800 0 800 0 0 -145 0 -145 -260 0
-260 0 0 -270 0 -270 530 0 530 0 0 270 0 270 -265 0 -266 0 3 143 3 142 803
3 802 2 0 -145 0 -145 -265 0 -265 0 0 -270 0 -270 530 0 530 0 0 270 0 270
-260 0 -260 0 0 150 0 150 -2420 0 -2420 0 0 595 0 595 385 0 385 0 0 -185 0
-185 -265 0 -265 0 0 -270 0 -270 535 0 535 0 0 270 0 270 -265 0 -265 0 0
195 0 195 -390 0 -390 0 0 190 0 190 260 0 260 0 0 270 0 270 -530 0 -530 0 0
-270z m1040 0 l0 -250 -515 0 -515 0 0 250 0 250 515 0 515 0 0 -250z m-780
-1315 l0 -255 -515 0 -515 0 0 255 0 255 515 0 515 0 0 -255z m1570 0 l0 -255
-515 0 -515 0 0 255 0 255 515 0 515 0 0 -255z m-5630 -1090 l0 -255 -515 0
-515 0 0 255 0 255 515 0 515 0 0 -255z m1620 -25 l0 -250 -520 0 -520 0 0
250 0 250 520 0 520 0 0 -250z m1610 0 l0 -250 -515 0 -515 0 0 250 0 250 515
0 515 0 0 -250z m1610 0 l0 -250 -515 0 -515 0 0 250 0 250 515 0 515 0 0
-250z m1620 0 l0 -250 -515 0 -515 0 0 250 0 250 515 0 515 0 0 -250z m1610 0
l0 -250 -515 0 -515 0 0 250 0 250 515 0 515 0 0 -250z m1620 0 l0 -250 -515
0 -515 0 0 250 0 250 515 0 515 0 0 -250z"/>
</g>
</svg>
